<?xml version="1.0" encoding="UTF-8"?><svg id="a" xmlns="http://www.w3.org/2000/svg" viewBox="0 0 376.89 372.33"><defs><style>.b{fill:#fff;}</style></defs><path class="b" d="M308.07,182.12c-4.16,5.46-8.74,10.98-14.6,14.7-12.99,8.26-32.39,8.8-47.34,8.16-13.15-.56-34.19-2.01-35.13-19.19-.83-14.99,8.92-30.14,16.51-42.29,3.98-6.37,7.98-12.42,12.95-18.11,4.99-5.74,10.29-11.22,14.82-17.35,3.34-4.52,6.29-9.46,7.58-14.93,.62-2.58,.79-5.52-.75-7.68-3.67-5.17-15.3-4.24-20.77-3.51-17.97,2.41-34.79,14.77-45.49,29-8.77,11.68-16.03,24.85-23.92,37.15-7.27,11.33-9.73,16.7-16.96,27.97-.77,1.19-1.53,2.37-2.29,3.55-.78,1.21-1.56,2.43-2.34,3.64l-24.07,16.17h-13.67l-2.33-33.94c1.6-2.51,3.2-5.01,4.8-7.52,.13-.2,.25-.39,.38-.59,12.49-19.56,20.12-32.99,33.29-52.05,9.44-13.66,19.92-26.87,32.61-37.69,10.52-8.98,22.75-16.27,36.37-19.26,15.8-3.47,33.6-.72,48.62,4.84,6.87,2.54,13.67,6.07,18.18,11.84,3.83,4.91,5.73,11.2,5.64,17.42-.14,9.02-4.29,17.32-10.26,23.91-5.02,5.53-11.69,9.43-17.27,14.4-4.89,4.34-9.5,9.04-13.52,14.21-8.16,10.46-16.28,26.62-11,40.13,8.15,20.87,36.54,19.82,53.95,14.22,5.46-1.76,11.58-3.37,16.01-7.2Z"/><path class="b" d="M154.97,176.04c-.77,1.19-1.53,2.37-2.29,3.55-.78,1.21-1.56,2.43-2.34,3.64l-24.07,16.17-8.21,5.52c-2.16,1.45-5.08,.02-5.26-2.58l-.2-2.94-2.33-33.94c1.72-2.71,3.45-5.4,5.18-8.11h0c10.29,4.83,31.18,14.73,39.52,18.69Z"/></svg>